<svg xmlns="http://www.w3.org/2000/svg" viewBox="0 0 96 96" role="img" aria-label="SASPA">
  <defs>
    <linearGradient id="g" x1="0" y1="0" x2="1" y2="1">
      <stop offset="0" stop-color="#7c3aed" />
      <stop offset="1" stop-color="#22c55e" />
    </linearGradient>
  </defs>
  <path
    d="M48 6c14.1 9.3 28.3 9.8 42 8.9V44c0 25.1-17 39.7-42 46C23 83.7 6 69.1 6 44V14.9C19.7 15.8 33.9 15.3 48 6Z"
    fill="url(#g)"
  />
  <path
    d="M48 24c8 0 14.5 6.5 14.5 14.5S56 53 48 53s-14.5-6.5-14.5-14.5S40 24 48 24Z"
    fill="rgba(0,0,0,0.25)"
  />
  <path
    d="M31 70l17-9 17 9-17 12-17-12Z"
    fill="rgba(0,0,0,0.22)"
  />
</svg>

